<?xml version="1.0" encoding="UTF-8" standalone="no"?>
<!-- Created with Inkscape (http://www.inkscape.org/) -->

<svg
   xmlns:dc="http://purl.org/dc/elements/1.1/"
   xmlns:cc="http://creativecommons.org/ns#"
   xmlns:rdf="http://www.w3.org/1999/02/22-rdf-syntax-ns#"
   xmlns:svg="http://www.w3.org/2000/svg"
   xmlns="http://www.w3.org/2000/svg"
   xmlns:sodipodi="http://sodipodi.sourceforge.net/DTD/sodipodi-0.dtd"
   xmlns:inkscape="http://www.inkscape.org/namespaces/inkscape"
   version="1.1"
   id="svg10"
   width="65"
   height="65"
   viewBox="0 0 65 65"
   sodipodi:docname="orLogo2023_65V2.svg"
   inkscape:export-filename="\\pdc-server-01\oriverol\CS210-2023\2023IconLogo.png"
   inkscape:export-xdpi="16"
   inkscape:export-ydpi="16"
   inkscape:version="0.92.3 (2405546, 2018-03-11)">
  <metadata
     id="metadata16">
    <rdf:RDF>
      <cc:Work
         rdf:about="">
        <dc:format>image/svg+xml</dc:format>
        <dc:type
           rdf:resource="http://purl.org/dc/dcmitype/StillImage" />
        <dc:title></dc:title>
      </cc:Work>
    </rdf:RDF>
  </metadata>
  <defs
     id="defs14" />
  <sodipodi:namedview
     pagecolor="#ffffff"
     bordercolor="#666666"
     borderopacity="1"
     objecttolerance="10"
     gridtolerance="10"
     guidetolerance="10"
     inkscape:pageopacity="0"
     inkscape:pageshadow="2"
     inkscape:window-width="1920"
     inkscape:window-height="1017"
     id="namedview12"
     showgrid="false"
     inkscape:zoom="11.764706"
     inkscape:cx="55.147124"
     inkscape:cy="32.543317"
     inkscape:window-x="-8"
     inkscape:window-y="-8"
     inkscape:window-maximized="1"
     inkscape:current-layer="g825" />
  <g
     id="g825"
     transform="matrix(0.21666667,0,0,0.21666667,-5e-7,50.916667)">
    <rect
       y="-222.40703"
       x="12.592972"
       height="274.81406"
       width="274.81406"
       id="rect22"
       style="fill:none;fill-opacity:1;stroke:#007070;stroke-width:25.18594551;stroke-miterlimit:4;stroke-dasharray:none;stroke-opacity:1" />
    <path
       inkscape:connector-curvature="0"
       id="path20"
       d="m 153.37112,-40.60844 c 0,-14.02758 -0.13,-24.87474 -0.29813,-24.87474 -0.16397,0 -0.64137,0.79788 -1.06088,1.77308 -0.41952,0.97518 -1.38861,2.77293 -2.15355,3.995 -8.89338,14.20803 -21.12025,23.47742 -37.00181,28.05165 -6.15826,1.77371 -8.44225,2.05111 -16.775631,2.03749 -6.8046,-0.0111 -8.283552,-0.11243 -11.39,-0.78022 -4.282473,-0.9206 -11.83981,-3.41211 -15.13,-4.98807 -12.42612,-5.95195 -22.878207,-16.21495 -28.938277,-28.41476 -2.798279,-5.63334 -3.686474,-7.96986 -4.765392,-12.53603 -3.01486,-12.75942 -2.252883,-26.57632 2.085086,-37.80875 9.301636,-24.08499 32.461028,-40.06364 58.138583,-40.11228 8.287351,-0.0157 13.885341,0.9955 22.209681,4.01183 8.51586,3.08572 17.05985,8.76511 23.49181,15.61553 4.06352,4.3279 8.45977,10.60424 10.13767,14.47317 0.47285,1.0903 0.99273,1.98236 1.15529,1.98236 0.16255,0 0.29555,-4.437 0.29555,-9.86 v -9.86 h 26.81063 c 27.70147,0 32.9937,0.18855 38.97938,1.38872 4.4015,0.88254 11.97485,3.43149 14.79,4.97785 8.79824,4.83288 15.14539,11.00952 19.34156,18.82196 1.53237,2.85298 3.49115,9.0071 4.1573,13.06147 0.66063,4.02082 0.56858,13.24514 -0.16964,17 -1.8553,9.43673 -5.47385,16.35817 -11.73257,22.44163 -1.62908,1.58346 -4.17802,3.72545 -5.66431,4.75999 -1.48629,1.03453 -2.70234,2.01406 -2.70234,2.17673 0,0.16267 1.224,1.85384 2.72,3.75814 1.496,1.9043 3.332,4.27994 4.08,5.27919 0.748,0.99924 2.21473,2.8625 3.2594,4.14057 1.04466,1.27806 4.10466,5.12641 6.8,8.55189 2.69533,3.42548 6.00923,7.63298 7.36423,9.35 1.35499,1.71703 2.93435,3.73386 3.50968,4.48186 l 1.04605,1.36 -17.43441,0.0881 -17.43443,0.0881 -0.77879,-0.93812 c -0.42833,-0.51597 -3.09936,-4.07463 -5.93561,-7.90813 -2.83625,-3.8335 -5.81696,-7.8115 -6.6238,-8.84 -0.80683,-1.0285 -4.29867,-5.695 -7.75964,-10.37 -3.46096,-4.675 -7.2278,-9.724 -8.37076,-11.22 -1.14294,-1.496 -4.76074,-6.3155 -8.03954,-10.71 l -5.96145,-7.99 11.51953,-0.18895 c 8.10495,-0.13295 11.92266,-0.32072 12.87954,-0.63348 7.45749,-2.43754 11.73,-8.45031 11.73,-16.50784 0,-7.24104 -3.06508,-12.55112 -8.8737,-15.37322 -3.41106,-1.65725 -4.80023,-1.80651 -16.81304,-1.80651 h -11.03327 v 46.24 46.24 h -7.08468 c -3.89658,0 -11.47008,0.10113 -16.83,0.22474 l -9.74532,0.22473 z m -48.79,-21.77617 c 11.81164,-3.18798 20.834,-13.91423 22.2135,-26.40858 0.63989,-5.79555 -0.29396,-10.66539 -3.19091,-16.63999 -3.13352,-6.46249 -8.3356,-11.47677 -15.08491,-14.54033 -6.41898,-2.91361 -17.024339,-3.04109 -23.794358,-0.28601 -6.124777,2.4925 -12.338872,8.15761 -15.277081,13.92743 -2.689642,5.2817 -3.798509,9.46336 -3.793674,14.30636 0.0052,5.21897 1.068083,9.33909 3.786249,14.67701 3.548376,6.96828 11.17781,13.10559 18.526862,14.90347 4.060039,0.99325 4.046252,0.99191 9.134321,0.89006 3.575571,-0.0716 5.436821,-0.27796 7.480001,-0.82942 z"
       style="fill:#4d96c2;fill-opacity:1;stroke-width:0.34" />
    <path
       style="fill:#d18544;fill-opacity:1;stroke:none;stroke-width:0.85000002;stroke-miterlimit:4;stroke-dasharray:none;stroke-opacity:1"
       d="m 33.301998,45.249847 c -1.7e-4,-3.143529 -0.102483,-8.492347 -0.162413,-8.491248 -0.02748,5.1e-4 -0.195483,0.277817 -0.373344,0.61625 -0.837034,1.592712 -2.585593,3.573562 -4.096617,4.640842 -0.924536,0.653025 -2.680539,1.519958 -3.782501,1.867407 -1.54663,0.487653 -2.009343,0.551908 -3.995,0.554773 -2.10077,0.003 -2.414077,-0.04364 -4.165,-0.620415 -2.28052,-0.751232 -3.629455,-1.581382 -5.315913,-3.271473 -1.236714,-1.239377 -1.8886732,-2.13256 -2.6100747,-3.5758 C 7.9519132,35.271225 7.62844,34.076157 7.4642776,32.03118 7.2680627,29.586922 7.7335614,27.11085 8.7816812,25.023671 c 1.8594068,-3.70274 5.2970938,-6.352103 9.3769638,-7.226655 1.183655,-0.253726 3.403397,-0.316094 4.645978,-0.130539 2.178523,0.325322 4.401491,1.252483 6.16249,2.570268 1.522974,1.139667 3.121842,3.020061 3.876837,4.559467 0.131223,0.267559 0.262897,0.486471 0.29261,0.486471 0.06123,0 0.165564,-2.151065 0.165564,-3.413515 v -0.836486 l 2.99625,0.0063 c 5.366381,0.01133 10.138925,0.137596 10.94375,0.289536 1.065943,0.201235 2.955539,0.856482 3.710313,1.286609 1.728576,0.985072 3.163036,2.446526 3.938507,4.012625 0.295222,0.596211 0.726687,1.986488 0.858449,2.766113 0.06211,0.367511 0.08273,1.123099 0.05567,2.04 -0.05191,1.75878 -0.263123,2.693223 -0.905105,4.004296 -0.666341,1.360819 -1.633365,2.485188 -2.962475,3.444496 -0.338034,0.243982 -0.522327,0.434649 -0.508903,0.526504 0.02217,0.151689 1.249413,1.751401 4.258542,5.550996 0.999651,1.26225 1.801218,2.323688 1.781259,2.35875 -0.01996,0.03506 -1.693951,0.06375 -3.719981,0.06375 H 50.064709 L 45.444666,41.20529 c -2.541023,-3.397552 -4.630716,-6.202698 -4.643761,-6.233658 -0.01305,-0.03096 1.134454,-0.09335 2.55,-0.138641 l 2.573719,-0.08235 0.571328,-0.281968 c 1.453112,-0.717155 2.215766,-2.290263 1.96253,-4.04806 -0.242614,-1.684064 -1.416814,-2.821597 -3.114003,-3.016762 -0.38217,-0.04395 -1.622418,-0.08019 -2.756105,-0.08055 l -2.06125,-6.45e-4 v 10.03 10.03 H 38.45825 c -1.13788,0 -2.763505,0.02516 -3.6125,0.05591 l -1.543626,0.05591 -8.5e-5,-2.244663 z M 22.974623,37.324324 c 2.214086,-0.723782 3.949212,-2.710991 4.42489,-5.067745 0.189409,-0.938429 0.131197,-2.274058 -0.133534,-3.063896 -0.202134,-0.603075 -0.671328,-1.581863 -0.955187,-1.992623 -0.868016,-1.256065 -2.462369,-2.350397 -3.846169,-2.639933 -0.770384,-0.161189 -2.464309,-0.16065 -3.227561,10e-4 -1.604115,0.339795 -3.37284,1.713837 -4.197308,3.260698 -0.142717,0.267763 -0.383718,0.848302 -0.535559,1.290086 -0.256813,0.747205 -0.275926,0.880334 -0.27395,1.908244 0.002,1.018947 0.02346,1.167553 0.276074,1.908244 0.330453,0.968912 0.651663,1.588231 1.158981,2.234607 0.793465,1.010955 2.202174,1.938228 3.461332,2.278397 0.517647,0.139845 0.825015,0.161939 1.892991,0.136069 1.09204,-0.02645 1.372579,-0.06278 1.955,-0.253176 z"
       id="path827"
       inkscape:connector-curvature="0"
       transform="matrix(4.6153845,0,0,4.6153845,2.3076923e-6,-235)" />
    <path
       style="fill:#d18544;fill-opacity:1;stroke:none;stroke-width:0.85000002;stroke-miterlimit:4;stroke-dasharray:none;stroke-opacity:1"
       d="M 0.06712281,32.507683 V 0.03768194 H 32.494624 64.922124 V 32.507683 64.977684 H 32.494624 0.06712281 Z M 59.546006,32.486433 59.567388,5.3926821 H 32.494755 5.4221229 V 32.451016 c 0,14.882084 0.025559,27.083894 0.056799,27.115133 0.031239,0.03124 12.2043021,0.04718 27.0512501,0.03542 l 26.994452,-0.02138 z"
       id="path829"
       inkscape:connector-curvature="0"
       transform="matrix(4.6153845,0,0,4.6153845,2.3076923e-6,-235)" />
  </g>
</svg>
