<?xml version="1.0" encoding="UTF-8" standalone="no"?>
<!-- Created with Inkscape (http://www.inkscape.org/) -->

<svg
   xmlns:dc="http://purl.org/dc/elements/1.1/"
   xmlns:cc="http://creativecommons.org/ns#"
   xmlns:rdf="http://www.w3.org/1999/02/22-rdf-syntax-ns#"
   xmlns:svg="http://www.w3.org/2000/svg"
   xmlns="http://www.w3.org/2000/svg"
   xmlns:sodipodi="http://sodipodi.sourceforge.net/DTD/sodipodi-0.dtd"
   xmlns:inkscape="http://www.inkscape.org/namespaces/inkscape"
   version="1.1"
   id="svg10"
   width="65"
   height="65"
   viewBox="0 0 65 65"
   sodipodi:docname="orLogo2023_65.svg"
   inkscape:export-filename="\\pdc-server-01\oriverol\CS210-2023\2023IconLogo.png"
   inkscape:export-xdpi="16"
   inkscape:export-ydpi="16"
   inkscape:version="0.92.3 (2405546, 2018-03-11)">
  <metadata
     id="metadata16">
    <rdf:RDF>
      <cc:Work
         rdf:about="">
        <dc:format>image/svg+xml</dc:format>
        <dc:type
           rdf:resource="http://purl.org/dc/dcmitype/StillImage" />
        <dc:title></dc:title>
      </cc:Work>
    </rdf:RDF>
  </metadata>
  <defs
     id="defs14" />
  <sodipodi:namedview
     pagecolor="#ffffff"
     bordercolor="#666666"
     borderopacity="1"
     objecttolerance="10"
     gridtolerance="10"
     guidetolerance="10"
     inkscape:pageopacity="0"
     inkscape:pageshadow="2"
     inkscape:window-width="1920"
     inkscape:window-height="1017"
     id="namedview12"
     showgrid="false"
     inkscape:zoom="11.764706"
     inkscape:cx="55.147124"
     inkscape:cy="32.543317"
     inkscape:window-x="-8"
     inkscape:window-y="-8"
     inkscape:window-maximized="1"
     inkscape:current-layer="svg10" />
  <g
     id="g825"
     transform="matrix(0.21666667,0,0,0.21666667,-5e-7,50.916667)">
    <rect
       y="-222.40703"
       x="12.592972"
       height="274.81406"
       width="274.81406"
       id="rect22"
       style="fill:#e6e6e6;fill-opacity:1;stroke:#007070;stroke-width:25.18594551;stroke-miterlimit:4;stroke-dasharray:none;stroke-opacity:1" />
    <path
       inkscape:connector-curvature="0"
       id="path20"
       d="m 153.37112,-40.60844 c 0,-14.02758 -0.13,-24.87474 -0.29813,-24.87474 -0.16397,0 -0.64137,0.79788 -1.06088,1.77308 -0.41952,0.97518 -1.38861,2.77293 -2.15355,3.995 -8.89338,14.20803 -21.12025,23.47742 -37.00181,28.05165 -6.15826,1.77371 -8.44225,2.05111 -16.775631,2.03749 -6.8046,-0.0111 -8.283552,-0.11243 -11.39,-0.78022 -4.282473,-0.9206 -11.83981,-3.41211 -15.13,-4.98807 -12.42612,-5.95195 -22.878207,-16.21495 -28.938277,-28.41476 -2.798279,-5.63334 -3.686474,-7.96986 -4.765392,-12.53603 -3.01486,-12.75942 -2.252883,-26.57632 2.085086,-37.80875 9.301636,-24.08499 32.461028,-40.06364 58.138583,-40.11228 8.287351,-0.0157 13.885341,0.9955 22.209681,4.01183 8.51586,3.08572 17.05985,8.76511 23.49181,15.61553 4.06352,4.3279 8.45977,10.60424 10.13767,14.47317 0.47285,1.0903 0.99273,1.98236 1.15529,1.98236 0.16255,0 0.29555,-4.437 0.29555,-9.86 v -9.86 h 26.81063 c 27.70147,0 32.9937,0.18855 38.97938,1.38872 4.4015,0.88254 11.97485,3.43149 14.79,4.97785 8.79824,4.83288 15.14539,11.00952 19.34156,18.82196 1.53237,2.85298 3.49115,9.0071 4.1573,13.06147 0.66063,4.02082 0.56858,13.24514 -0.16964,17 -1.8553,9.43673 -5.47385,16.35817 -11.73257,22.44163 -1.62908,1.58346 -4.17802,3.72545 -5.66431,4.75999 -1.48629,1.03453 -2.70234,2.01406 -2.70234,2.17673 0,0.16267 1.224,1.85384 2.72,3.75814 1.496,1.9043 3.332,4.27994 4.08,5.27919 0.748,0.99924 2.21473,2.8625 3.2594,4.14057 1.04466,1.27806 4.10466,5.12641 6.8,8.55189 2.69533,3.42548 6.00923,7.63298 7.36423,9.35 1.35499,1.71703 2.93435,3.73386 3.50968,4.48186 l 1.04605,1.36 -17.43441,0.0881 -17.43443,0.0881 -0.77879,-0.93812 c -0.42833,-0.51597 -3.09936,-4.07463 -5.93561,-7.90813 -2.83625,-3.8335 -5.81696,-7.8115 -6.6238,-8.84 -0.80683,-1.0285 -4.29867,-5.695 -7.75964,-10.37 -3.46096,-4.675 -7.2278,-9.724 -8.37076,-11.22 -1.14294,-1.496 -4.76074,-6.3155 -8.03954,-10.71 l -5.96145,-7.99 11.51953,-0.18895 c 8.10495,-0.13295 11.92266,-0.32072 12.87954,-0.63348 7.45749,-2.43754 11.73,-8.45031 11.73,-16.50784 0,-7.24104 -3.06508,-12.55112 -8.8737,-15.37322 -3.41106,-1.65725 -4.80023,-1.80651 -16.81304,-1.80651 h -11.03327 v 46.24 46.24 h -7.08468 c -3.89658,0 -11.47008,0.10113 -16.83,0.22474 l -9.74532,0.22473 z m -48.79,-21.77617 c 11.81164,-3.18798 20.834,-13.91423 22.2135,-26.40858 0.63989,-5.79555 -0.29396,-10.66539 -3.19091,-16.63999 -3.13352,-6.46249 -8.3356,-11.47677 -15.08491,-14.54033 -6.41898,-2.91361 -17.024339,-3.04109 -23.794358,-0.28601 -6.124777,2.4925 -12.338872,8.15761 -15.277081,13.92743 -2.689642,5.2817 -3.798509,9.46336 -3.793674,14.30636 0.0052,5.21897 1.068083,9.33909 3.786249,14.67701 3.548376,6.96828 11.17781,13.10559 18.526862,14.90347 4.060039,0.99325 4.046252,0.99191 9.134321,0.89006 3.575571,-0.0716 5.436821,-0.27796 7.480001,-0.82942 z"
       style="fill:#4d96c2;fill-opacity:1;stroke-width:0.34" />
    <path
       inkscape:connector-curvature="0"
       id="path4534"
       d="m 88.740002,-62.4202 c -5.504116,-1.47499 -9.276927,-3.59027 -13.383823,-7.50384 -7.761502,-7.39614 -11.315552,-19.18554 -8.71886,-28.92196 1.461681,-5.48065 4.093367,-10.13331 7.992683,-14.1306 6.421214,-6.58255 12.136373,-8.95064 21.59,-8.94588 5.943898,0.003 8.929128,0.54817 12.633008,2.30714 11.02241,5.23452 17.93293,16.02798 17.86899,27.90934 -0.0713,13.25634 -9.29092,25.50216 -21.8949,29.0817 -1.85522,0.52689 -3.826,0.74671 -7.757098,0.86523 -4.792709,0.1445 -5.547136,0.0846 -8.33,-0.66113 z"
       style="fill:#d18544;fill-opacity:1;stroke:none;stroke-width:3.4000001;stroke-miterlimit:4;stroke-dasharray:none;stroke-opacity:1" />
  </g>
</svg>
